<svg width="29" height="30" viewBox="0 0 29 30" fill="none" xmlns="http://www.w3.org/2000/svg">
<path d="M19.8911 24.3609C21.1835 24.3609 22.2312 23.3132 22.2312 22.0208C22.2312 20.7284 21.1835 19.6807 19.8911 19.6807C18.5987 19.6807 17.551 20.7284 17.551 22.0208C17.551 23.3132 18.5987 24.3609 19.8911 24.3609Z" stroke="#232323" stroke-width="1.75509" stroke-linecap="round" stroke-linejoin="round"/>
<path d="M8.1904 24.3609C9.48282 24.3609 10.5305 23.3132 10.5305 22.0208C10.5305 20.7284 9.48282 19.6807 8.1904 19.6807C6.89799 19.6807 5.85028 20.7284 5.85028 22.0208C5.85028 23.3132 6.89799 24.3609 8.1904 24.3609Z" stroke="#232323" stroke-width="1.75509" stroke-linecap="round" stroke-linejoin="round"/>
<path d="M5.85027 21.9877C4.56671 21.9246 3.76756 21.7338 3.19657 21.164C2.62558 20.5942 2.43603 19.7939 2.37285 18.5103M10.5305 22.0205H17.5509M22.2311 21.9877C23.5147 21.9246 24.3138 21.7338 24.8848 21.164C25.7413 20.3064 25.7413 18.928 25.7413 16.1702V13.8301H20.242C19.3703 13.8301 18.9351 13.8301 18.5829 13.7154C18.2317 13.6013 17.9125 13.4057 17.6514 13.1446C17.3903 12.8834 17.1946 12.5642 17.0805 12.2131C16.9659 11.8609 16.9659 11.4256 16.9659 10.5539C16.9659 9.24695 16.9659 8.59405 16.7939 8.06519C16.6227 7.53839 16.3292 7.05959 15.9376 6.66792C15.5459 6.27625 15.0671 5.98283 14.5403 5.81165C14.0114 5.63965 13.3586 5.63965 12.0516 5.63965H2.34009M2.34009 10.3199H9.36045M2.34009 13.8301H7.02033" stroke="#232323" stroke-width="1.75509" stroke-linecap="round" stroke-linejoin="round"/>
<path d="M16.9659 7.97949H19.0966C20.8002 7.97949 21.6509 7.97949 22.3435 8.39369C23.0374 8.80673 23.4411 9.55673 24.2484 11.0568L25.7414 13.8298" stroke="#232323" stroke-width="1.75509" stroke-linecap="round" stroke-linejoin="round"/>
</svg>
